<svg id="Group_171" data-name="Group 171" xmlns="http://www.w3.org/2000/svg" xmlns:xlink="http://www.w3.org/1999/xlink" width="397.107" height="397.103" viewBox="0 0 397.107 397.103">
  <defs>
    <clipPath id="clip-path">
      <rect id="Rectangle_1" data-name="Rectangle 1" width="126.132" height="176.857" fill="none"/>
    </clipPath>
    <clipPath id="clip-path-2">
      <rect id="Rectangle_2" data-name="Rectangle 2" width="178.178" height="125.48" fill="none"/>
    </clipPath>
    <clipPath id="clip-path-3">
      <rect id="Rectangle_3" data-name="Rectangle 3" width="126.586" height="176.715" fill="none"/>
    </clipPath>
  </defs>
  <path id="Path_1" data-name="Path 1" d="M360.416,172.209H287.14L338.952,120.4A36.693,36.693,0,0,0,287.06,68.5l-51.813,51.813V47.04a36.693,36.693,0,0,0-73.385,0v73.277L110.05,68.5a36.695,36.695,0,1,0-51.9,51.892l51.817,51.812H36.695a36.693,36.693,0,1,0,0,73.385h73.277L58.154,297.406a36.7,36.7,0,0,0,51.9,51.9l51.813-51.821v73.277a36.693,36.693,0,1,0,73.385,0V297.481L287.06,349.3a36.695,36.695,0,0,0,51.892-51.9L287.14,245.594h73.276a36.693,36.693,0,0,0,0-73.385" transform="translate(0 -10.35)" fill="#df121d"/>
  <g id="Group_3" data-name="Group 3" transform="translate(162.065 110.012)" opacity="0.75">
    <g id="Group_2" data-name="Group 2">
      <g id="Group_1" data-name="Group 1" clip-path="url(#clip-path)">
        <path id="Path_2" data-name="Path 2" d="M38.812,213.547l.142-176.852L164.943,161.657l-73.937.117Z" transform="translate(-38.812 -36.691)" fill="#fff"/>
      </g>
    </g>
  </g>
  <g id="Group_6" data-name="Group 6" transform="translate(110.232 162.084)" opacity="0.75">
    <g id="Group_5" data-name="Group 5">
      <g id="Group_4" data-name="Group 4" clip-path="url(#clip-path-2)">
        <path id="Path_3" data-name="Path 3" d="M152.048,174.647,26.4,49.167l178.176.459-52.332,51.8Z" transform="translate(-26.396 -49.166)" fill="#fff"/>
      </g>
    </g>
  </g>
  <g id="Group_9" data-name="Group 9" transform="translate(109.393 110.225)" opacity="0.75">
    <g id="Group_8" data-name="Group 8">
      <g id="Group_7" data-name="Group 7" clip-path="url(#clip-path-3)">
        <path id="Path_4" data-name="Path 4" d="M26.2,162.668l125.2-125.922h0l1.386,176.715L100.014,162.1Z" transform="translate(-26.198 -36.744)" fill="#fff"/>
      </g>
    </g>
  </g>
</svg>
